<?xml version="1.0" standalone="no"?><svg xmlns:xlink="http://www.w3.org/1999/xlink" xmlns="http://www.w3.org/2000/svg" viewBox="0 0 1000 625.0056530902053" preserveAspectRatio="xMaxYMax slice"><g transform="scale(0.904494432836766)"><rect x="0" y="0" width="1105.6" height="691" fill="#ffffff"/><rect x="0" y="0" width="69.1" height="69.1" fill="#5874e9"/><polygon points="0,0 69.1,69.1 0,69.1" fill="#d5dcfa"/><rect x="69.1" y="0" width="69.1" height="69.1" fill="#ffffff"/><rect x="69.1" y="0" width="34.55" height="34.55" fill="#889cf0"/><polygon points="103.64999999999999,0 103.64999999999999,34.55 69.1,34.55" fill="#ffd6e0"/><rect x="103.65" y="0" width="34.55" height="34.55" fill="#fff6f8"/><polygon points="103.65,0 138.2,34.55 103.65,34.55" fill="#ffdce4"/><rect x="69.1" y="34.55" width="34.55" height="34.55" fill="#ff567e"/><polygon points="69.1,34.55 103.64999999999999,34.55 69.1,69.1" fill="#bfc9f7"/><rect x="103.65" y="34.55" width="34.55" height="34.55" fill="#788fed"/><polygon points="138.2,34.55 138.2,69.1 103.65,69.1" fill="#ff9ab2"/><rect x="138.2" y="0" width="69.1" height="69.1" fill="#ffffff"/><rect x="138.2" y="0" width="34.55" height="34.55" fill="#7d93ee"/><polygon points="138.2,0 172.75,34.55 138.2,34.55" fill="#ff6086"/><rect x="172.75" y="0" width="34.55" height="34.55" fill="#b4c1f5"/><polygon points="172.75,0 207.3,34.55 172.75,34.55" fill="#ff4f78"/><rect x="138.2" y="34.55" width="34.55" height="34.55" fill="#ff6086"/><polygon points="138.2,34.55 172.75,34.55 172.75,69.1" fill="#ff6086"/><rect x="172.75" y="34.55" width="34.55" height="34.55" fill="#2248e2"/><polygon points="172.75,34.55 207.3,34.55 172.75,69.1" fill="#f2f4fd"/><rect x="207.29999999999998" y="0" width="69.1" height="69.1" fill="#ffffff"/><rect x="207.3" y="0" width="34.55" height="34.55" fill="#ff4a75"/><polygon points="241.85000000000002,0 241.85000000000002,34.55 207.3,34.55" fill="#ffd5df"/><rect x="241.85" y="0" width="34.55" height="34.55" fill="#93a5f1"/><polygon points="241.85,0 276.4,0 276.4,34.55" fill="#ff4c77"/><rect x="207.3" y="34.55" width="34.55" height="34.55" fill="#5773e9"/><polygon points="241.85000000000002,34.55 241.85000000000002,69.1 207.3,69.1" fill="#ff8ea9"/><rect x="241.85" y="34.55" width="34.55" height="34.55" fill="#ff7c9b"/><polygon points="241.85,34.55 276.4,69.1 241.85,69.1" fill="#fff3f6"/><rect x="276.4" y="0" width="69.1" height="69.1" fill="#ffffff"/><rect x="276.4" y="0" width="34.55" height="34.55" fill="#c9d2f8"/><polygon points="310.95,0 310.95,34.55 276.4,34.55" fill="#d3dbf9"/><rect x="310.95" y="0" width="34.55" height="34.55" fill="#ffa6bb"/><polygon points="310.95,0 345.5,0 310.95,34.55" fill="#2c4fe4"/><rect x="276.4" y="34.55" width="34.55" height="34.55" fill="#c1cbf7"/><polygon points="310.95,34.55 310.95,69.1 276.4,69.1" fill="#ff7c9b"/><rect x="310.95" y="34.55" width="34.55" height="34.55" fill="#ffaabe"/><polygon points="310.95,34.55 345.5,34.55 345.5,69.1" fill="#ff5f85"/><rect x="345.5" y="0" width="69.1" height="69.1" fill="#ffffff"/><rect x="345.5" y="0" width="34.55" height="34.55" fill="#506ee8"/><polygon points="380.05,0 380.05,34.55 345.5,34.55" fill="#ff7797"/><rect x="380.05" y="0" width="34.55" height="34.55" fill="#aebcf4"/><polygon points="380.05,0 414.6,0 380.05,34.55" fill="#ff87a4"/><rect x="345.5" y="34.55" width="34.55" height="34.55" fill="#ff527b"/><polygon points="345.5,34.55 380.05,34.55 345.5,69.1" fill="#fff7f9"/><rect x="380.05" y="34.55" width="34.55" height="34.55" fill="#ffa2b8"/><polygon points="380.05,34.55 414.6,34.55 414.6,69.1" fill="#ff7b9a"/><rect x="414.59999999999997" y="0" width="69.1" height="69.1" fill="#ffffff"/><rect x="414.6" y="0" width="34.55" height="34.55" fill="#f2f4fd"/><polygon points="414.6,0 449.15000000000003,0 449.15000000000003,34.55" fill="#ff98b0"/><rect x="449.15" y="0" width="34.55" height="34.55" fill="#ff97b0"/><polygon points="483.7,0 483.7,34.55 449.15,34.55" fill="#ffd8e1"/><rect x="414.6" y="34.55" width="34.55" height="34.55" fill="#4363e7"/><polygon points="414.6,34.55 449.15000000000003,34.55 449.15000000000003,69.1" fill="#2348e2"/><rect x="449.15" y="34.55" width="34.55" height="34.55" fill="#ff3f6d"/><polygon points="449.15,34.55 483.7,34.55 449.15,69.1" fill="#ff96af"/><rect x="483.69999999999993" y="0" width="69.1" height="69.1" fill="#ffffff"/><rect x="483.7" y="0" width="34.55" height="34.55" fill="#ff7495"/><polygon points="483.7,0 518.25,34.55 483.7,34.55" fill="#ffe4eb"/><rect x="518.25" y="0" width="34.55" height="34.55" fill="#ffcbd7"/><polygon points="518.25,0 552.8,34.55 518.25,34.55" fill="#cad3f8"/><rect x="483.7" y="34.55" width="34.55" height="34.55" fill="#869aef"/><polygon points="483.7,34.55 518.25,34.55 518.25,69.1" fill="#ff99b1"/><rect x="518.25" y="34.55" width="34.55" height="34.55" fill="#cad3f8"/><polygon points="518.25,34.55 552.8,34.55 518.25,69.1" fill="#ff98b1"/><rect x="552.8" y="0" width="69.1" height="69.1" fill="#7f94ee"/><polygon points="621.9,0 621.9,69.1 552.8,69.1" fill="#e1e6fb"/><rect x="621.9" y="0" width="69.1" height="69.1" fill="#dae1fa"/><polygon points="621.9,0 691,69.1 621.9,69.1" fill="#ff4f79"/><rect x="691" y="0" width="69.1" height="69.1" fill="#f4f6fe"/><polygon points="691,0 760.1,0 691,69.1" fill="#ff91ab"/><rect x="760.1" y="0" width="69.1" height="69.1" fill="#ffdae3"/><polygon points="760.1,0 829.2,69.1 760.1,69.1" fill="#b9c5f6"/><rect x="829.1999999999999" y="0" width="69.1" height="69.1" fill="#ffffff"/><rect x="829.2" y="0" width="34.55" height="34.55" fill="#d2d9f9"/><polygon points="829.2,0 863.75,0 863.75,34.55" fill="#ff6a8e"/><rect x="863.75" y="0" width="34.55" height="34.55" fill="#ff7495"/><polygon points="863.75,0 898.3,0 863.75,34.55" fill="#ff5d83"/><rect x="829.2" y="34.55" width="34.55" height="34.55" fill="#c9d2f8"/><polygon points="829.2,34.55 863.75,69.1 829.2,69.1" fill="#b6c2f5"/><rect x="863.75" y="34.55" width="34.55" height="34.55" fill="#ffa0b7"/><polygon points="863.75,34.55 898.3,69.1 863.75,69.1" fill="#8196ef"/><rect x="898.3" y="0" width="69.1" height="69.1" fill="#ffadc0"/><polygon points="967.4,0 967.4,69.1 898.3,69.1" fill="#5f7aea"/><rect x="967.4" y="0" width="69.1" height="69.1" fill="#ffaabf"/><polygon points="1036.5,0 1036.5,69.1 967.4,69.1" fill="#8196ef"/><rect x="1036.5" y="0" width="69.1" height="69.1" fill="#ffd0db"/><polygon points="1105.6,0 1105.6,69.1 1036.5,69.1" fill="#96a7f1"/><rect x="0" y="69.1" width="69.1" height="69.1" fill="#ffc1d0"/><polygon points="0,69.1 69.1,138.2 0,138.2" fill="#ff6c8f"/><rect x="69.1" y="69.1" width="69.1" height="69.1" fill="#ff8ea9"/><polygon points="69.1,69.1 138.2,138.2 69.1,138.2" fill="#ff89a5"/><rect x="138.2" y="69.1" width="69.1" height="69.1" fill="#ffffff"/><rect x="138.2" y="69.1" width="34.55" height="34.55" fill="#ff99b2"/><polygon points="138.2,69.1 172.75,103.64999999999999 138.2,103.64999999999999" fill="#ffe6ec"/><rect x="172.75" y="69.1" width="34.55" height="34.55" fill="#5975e9"/><polygon points="207.3,69.1 207.3,103.64999999999999 172.75,103.64999999999999" fill="#b6c3f6"/><rect x="138.2" y="103.65" width="34.55" height="34.55" fill="#fefeff"/><polygon points="138.2,103.65 172.75,103.65 138.2,138.2" fill="#ffd1dc"/><rect x="172.75" y="103.65" width="34.55" height="34.55" fill="#ff4470"/><polygon points="172.75,103.65 207.3,103.65 172.75,138.2" fill="#fbfcfe"/><rect x="207.3" y="69.1" width="69.1" height="69.1" fill="#ffecf0"/><polygon points="207.3,69.1 276.4,138.2 207.3,138.2" fill="#ffd3dd"/><rect x="276.4" y="69.1" width="69.1" height="69.1" fill="#99aaf2"/><polygon points="276.4,69.1 345.5,69.1 276.4,138.2" fill="#fff6f8"/><rect x="345.5" y="69.1" width="69.1" height="69.1" fill="#ffffff"/><rect x="345.5" y="69.1" width="34.55" height="34.55" fill="#506ee8"/><polygon points="345.5,69.1 380.05,69.1 345.5,103.64999999999999" fill="#1e44e2"/><rect x="380.05" y="69.1" width="34.55" height="34.55" fill="#ff7c9b"/><polygon points="380.05,69.1 414.6,69.1 414.6,103.64999999999999" fill="#ffdbe4"/><rect x="345.5" y="103.65" width="34.55" height="34.55" fill="#b4c1f5"/><polygon points="345.5,103.65 380.05,103.65 380.05,138.2" fill="#8c9ff0"/><rect x="380.05" y="103.65" width="34.55" height="34.55" fill="#fff6f8"/><polygon points="380.05,103.65 414.6,103.65 380.05,138.2" fill="#cdd5f8"/><rect x="414.6" y="69.1" width="69.1" height="69.1" fill="#ffc1d0"/><polygon points="414.6,69.1 483.70000000000005,138.2 414.6,138.2" fill="#ffb4c6"/><rect x="483.7" y="69.1" width="69.1" height="69.1" fill="#dce2fa"/><polygon points="483.7,69.1 552.8,138.2 483.7,138.2" fill="#ebeefc"/><rect x="552.8" y="69.1" width="69.1" height="69.1" fill="#4c6ae8"/><polygon points="552.8,69.1 621.9,69.1 621.9,138.2" fill="#b4c1f5"/><rect x="621.9" y="69.1" width="69.1" height="69.1" fill="#ff9eb5"/><polygon points="621.9,69.1 691,138.2 621.9,138.2" fill="#2449e2"/><rect x="691" y="69.1" width="69.1" height="69.1" fill="#ff7c9b"/><polygon points="691,69.1 760.1,69.1 760.1,138.2" fill="#2d50e4"/><rect x="760.0999999999999" y="69.1" width="69.1" height="69.1" fill="#ffffff"/><rect x="760.1" y="69.1" width="34.55" height="34.55" fill="#ffb3c5"/><polygon points="760.1,69.1 794.65,69.1 794.65,103.64999999999999" fill="#d0d8f9"/><rect x="794.65" y="69.1" width="34.55" height="34.55" fill="#ff92ac"/><polygon points="794.65,69.1 829.1999999999999,103.64999999999999 794.65,103.64999999999999" fill="#3557e5"/><rect x="760.1" y="103.65" width="34.55" height="34.55" fill="#ffdee6"/><polygon points="760.1,103.65 794.65,138.2 760.1,138.2" fill="#4f6ce8"/><rect x="794.65" y="103.65" width="34.55" height="34.55" fill="#ffb8c9"/><polygon points="794.65,103.65 829.1999999999999,138.2 794.65,138.2" fill="#ffe5eb"/><rect x="829.2" y="69.1" width="69.1" height="69.1" fill="#ff9cb4"/><polygon points="898.3000000000001,69.1 898.3000000000001,138.2 829.2,138.2" fill="#b8c4f6"/><rect x="898.3" y="69.1" width="69.1" height="69.1" fill="#ffffff"/><rect x="898.3" y="69.1" width="34.55" height="34.55" fill="#768ded"/><polygon points="932.8499999999999,69.1 932.8499999999999,103.64999999999999 898.3,103.64999999999999" fill="#bdc8f6"/><rect x="932.85" y="69.1" width="34.55" height="34.55" fill="#edf0fd"/><polygon points="967.4,69.1 967.4,103.64999999999999 932.85,103.64999999999999" fill="#ffe0e7"/><rect x="898.3" y="103.65" width="34.55" height="34.55" fill="#284ce3"/><polygon points="898.3,103.65 932.8499999999999,103.65 898.3,138.2" fill="#a6b5f3"/><rect x="932.85" y="103.65" width="34.55" height="34.55" fill="#ffadc0"/><polygon points="932.85,103.65 967.4,103.65 932.85,138.2" fill="#ff9bb2"/><rect x="967.3999999999999" y="69.1" width="69.1" height="69.1" fill="#ffffff"/><rect x="967.4" y="69.1" width="34.55" height="34.55" fill="#2146e2"/><polygon points="967.4,69.1 1001.9499999999999,69.1 1001.9499999999999,103.64999999999999" fill="#ffd4de"/><rect x="1001.95" y="69.1" width="34.55" height="34.55" fill="#f9fafe"/><polygon points="1001.95,69.1 1036.5,69.1 1001.95,103.64999999999999" fill="#3053e4"/><rect x="967.4" y="103.65" width="34.55" height="34.55" fill="#ffaec1"/><polygon points="967.4,103.65 1001.9499999999999,103.65 967.4,138.2" fill="#ff8aa6"/><rect x="1001.95" y="103.65" width="34.55" height="34.55" fill="#ff567e"/><polygon points="1001.95,103.65 1036.5,103.65 1001.95,138.2" fill="#b6c2f5"/><rect x="1036.5" y="69.1" width="69.1" height="69.1" fill="#ffffff"/><rect x="1036.5" y="69.1" width="34.55" height="34.55" fill="#ff4874"/><polygon points="1036.5,69.1 1071.05,69.1 1071.05,103.64999999999999" fill="#ffe4eb"/><rect x="1071.05" y="69.1" width="34.55" height="34.55" fill="#ff3d6b"/><polygon points="1071.05,69.1 1105.6,69.1 1071.05,103.64999999999999" fill="#c8d2f8"/><rect x="1036.5" y="103.65" width="34.55" height="34.55" fill="#3d5ee6"/><polygon points="1071.05,103.65 1071.05,138.2 1036.5,138.2" fill="#2a4ee3"/><rect x="1071.05" y="103.65" width="34.55" height="34.55" fill="#ffacc0"/><polygon points="1071.05,103.65 1105.6,138.2 1071.05,138.2" fill="#1940e1"/><rect x="0" y="138.2" width="69.1" height="69.1" fill="#5f7aea"/><polygon points="0,138.2 69.1,138.2 69.1,207.29999999999998" fill="#8297ef"/><rect x="69.1" y="138.2" width="69.1" height="69.1" fill="#ffffff"/><rect x="69.1" y="138.2" width="34.55" height="34.55" fill="#ffd0db"/><polygon points="103.64999999999999,138.2 103.64999999999999,172.75 69.1,172.75" fill="#4363e7"/><rect x="103.65" y="138.2" width="34.55" height="34.55" fill="#2c4fe4"/><polygon points="103.65,138.2 138.2,172.75 103.65,172.75" fill="#e8ecfc"/><rect x="69.1" y="172.75" width="34.55" height="34.55" fill="#6781eb"/><polygon points="69.1,172.75 103.64999999999999,172.75 103.64999999999999,207.3" fill="#c3cef7"/><rect x="103.65" y="172.75" width="34.55" height="34.55" fill="#4f6de8"/><polygon points="103.65,172.75 138.2,172.75 103.65,207.3" fill="#ff92ac"/><rect x="138.2" y="138.2" width="69.1" height="69.1" fill="#ff426f"/><polygon points="138.2,138.2 207.29999999999998,207.29999999999998 138.2,207.29999999999998" fill="#ffc9d6"/><rect x="207.29999999999998" y="138.2" width="69.1" height="69.1" fill="#ffffff"/><rect x="207.3" y="138.2" width="34.55" height="34.55" fill="#4a68e7"/><polygon points="241.85000000000002,138.2 241.85000000000002,172.75 207.3,172.75" fill="#a3b2f3"/><rect x="241.85" y="138.2" width="34.55" height="34.55" fill="#fffdfe"/><polygon points="241.85,138.2 276.4,138.2 276.4,172.75" fill="#b5c2f5"/><rect x="207.3" y="172.75" width="34.55" height="34.55" fill="#3355e4"/><polygon points="207.3,172.75 241.85000000000002,172.75 241.85000000000002,207.3" fill="#e8ecfc"/><rect x="241.85" y="172.75" width="34.55" height="34.55" fill="#c5cef7"/><polygon points="276.4,172.75 276.4,207.3 241.85,207.3" fill="#c7d1f8"/><rect x="276.4" y="138.2" width="69.1" height="69.1" fill="#ff90aa"/><polygon points="276.4,138.2 345.5,138.2 345.5,207.29999999999998" fill="#ff6e91"/><rect x="345.5" y="138.2" width="69.1" height="69.1" fill="#ffceda"/><polygon points="345.5,138.2 414.6,138.2 345.5,207.29999999999998" fill="#ffbfcf"/><rect x="414.59999999999997" y="138.2" width="69.1" height="69.1" fill="#ffffff"/><rect x="414.6" y="138.2" width="34.55" height="34.55" fill="#ff809e"/><polygon points="449.15000000000003,138.2 449.15000000000003,172.75 414.6,172.75" fill="#889cf0"/><rect x="449.15" y="138.2" width="34.55" height="34.55" fill="#879bef"/><polygon points="449.15,138.2 483.7,172.75 449.15,172.75" fill="#a2b2f3"/><rect x="414.6" y="172.75" width="34.55" height="34.55" fill="#6680eb"/><polygon points="449.15000000000003,172.75 449.15000000000003,207.3 414.6,207.3" fill="#ff9bb3"/><rect x="449.15" y="172.75" width="34.55" height="34.55" fill="#fff9fb"/><polygon points="483.7,172.75 483.7,207.3 449.15,207.3" fill="#ff94ae"/><rect x="483.7" y="138.2" width="69.1" height="69.1" fill="#ff96af"/><polygon points="483.7,138.2 552.8,207.29999999999998 483.7,207.29999999999998" fill="#fdfeff"/><rect x="552.8" y="138.2" width="69.1" height="69.1" fill="#899df0"/><polygon points="552.8,138.2 621.9,207.29999999999998 552.8,207.29999999999998" fill="#ffd6e0"/><rect x="621.9" y="138.2" width="69.1" height="69.1" fill="#bdc8f6"/><polygon points="621.9,138.2 691,207.29999999999998 621.9,207.29999999999998" fill="#92a4f1"/><rect x="691" y="138.2" width="69.1" height="69.1" fill="#ffffff"/><rect x="691" y="138.2" width="34.55" height="34.55" fill="#ff9eb5"/><polygon points="691,138.2 725.55,138.2 725.55,172.75" fill="#ffecf1"/><rect x="725.55" y="138.2" width="34.55" height="34.55" fill="#788eed"/><polygon points="760.0999999999999,138.2 760.0999999999999,172.75 725.55,172.75" fill="#ff668a"/><rect x="691" y="172.75" width="34.55" height="34.55" fill="#768ded"/><polygon points="691,172.75 725.55,172.75 691,207.3" fill="#cdd6f9"/><rect x="725.55" y="172.75" width="34.55" height="34.55" fill="#ffd4de"/><polygon points="725.55,172.75 760.0999999999999,207.3 725.55,207.3" fill="#ff517a"/><rect x="760.1" y="138.2" width="69.1" height="69.1" fill="#ff98b1"/><polygon points="760.1,138.2 829.2,138.2 829.2,207.29999999999998" fill="#ff4c77"/><rect x="829.2" y="138.2" width="69.1" height="69.1" fill="#e6eafc"/><polygon points="829.2,138.2 898.3000000000001,138.2 898.3000000000001,207.29999999999998" fill="#dce2fa"/><rect x="898.3" y="138.2" width="69.1" height="69.1" fill="#ffffff"/><rect x="898.3" y="138.2" width="34.55" height="34.55" fill="#ff5d84"/><polygon points="932.8499999999999,138.2 932.8499999999999,172.75 898.3,172.75" fill="#ff7c9b"/><rect x="932.85" y="138.2" width="34.55" height="34.55" fill="#e8ecfc"/><polygon points="967.4,138.2 967.4,172.75 932.85,172.75" fill="#ff7999"/><rect x="898.3" y="172.75" width="34.55" height="34.55" fill="#6e87ec"/><polygon points="898.3,172.75 932.8499999999999,207.3 898.3,207.3" fill="#7189ed"/><rect x="932.85" y="172.75" width="34.55" height="34.55" fill="#ff6c8f"/><polygon points="932.85,172.75 967.4,207.3 932.85,207.3" fill="#ffccd8"/><rect x="967.3999999999999" y="138.2" width="69.1" height="69.1" fill="#ffffff"/><rect x="967.4" y="138.2" width="34.55" height="34.55" fill="#c3cdf7"/><polygon points="1001.9499999999999,138.2 1001.9499999999999,172.75 967.4,172.75" fill="#879bef"/><rect x="1001.95" y="138.2" width="34.55" height="34.55" fill="#ff557d"/><polygon points="1036.5,138.2 1036.5,172.75 1001.95,172.75" fill="#6680eb"/><rect x="967.4" y="172.75" width="34.55" height="34.55" fill="#ff7495"/><polygon points="1001.9499999999999,172.75 1001.9499999999999,207.3 967.4,207.3" fill="#3e5ee6"/><rect x="1001.95" y="172.75" width="34.55" height="34.55" fill="#899df0"/><polygon points="1001.95,172.75 1036.5,172.75 1001.95,207.3" fill="#ff4f78"/><rect x="1036.5" y="138.2" width="69.1" height="69.1" fill="#ffffff"/><rect x="1036.5" y="138.2" width="34.55" height="34.55" fill="#ff7d9c"/><polygon points="1036.5,138.2 1071.05,138.2 1071.05,172.75" fill="#e7ebfc"/><rect x="1071.05" y="138.2" width="34.55" height="34.55" fill="#ff3f6d"/><polygon points="1071.05,138.2 1105.6,138.2 1071.05,172.75" fill="#d3dbf9"/><rect x="1036.5" y="172.75" width="34.55" height="34.55" fill="#647eeb"/><polygon points="1036.5,172.75 1071.05,172.75 1036.5,207.3" fill="#ffa9be"/><rect x="1071.05" y="172.75" width="34.55" height="34.55" fill="#ffd8e1"/><polygon points="1071.05,172.75 1105.6,172.75 1071.05,207.3" fill="#5d78ea"/><rect x="0" y="207.3" width="69.1" height="69.1" fill="#1c42e1"/><polygon points="0,207.3 69.1,207.3 69.1,276.4" fill="#ff8faa"/><rect x="69.1" y="207.3" width="69.1" height="69.1" fill="#516fe8"/><polygon points="69.1,207.3 138.2,207.3 69.1,276.4" fill="#ffc1cf"/><rect x="138.2" y="207.3" width="69.1" height="69.1" fill="#ff87a3"/><polygon points="138.2,207.3 207.29999999999998,207.3 138.2,276.4" fill="#d4dcf9"/><rect x="207.3" y="207.3" width="69.1" height="69.1" fill="#ff688c"/><polygon points="207.3,207.3 276.4,207.3 207.3,276.4" fill="#fff7f9"/><rect x="276.4" y="207.3" width="69.1" height="69.1" fill="#ffd2dd"/><polygon points="276.4,207.3 345.5,207.3 276.4,276.4" fill="#385ae5"/><rect x="345.5" y="207.29999999999998" width="69.1" height="69.1" fill="#ffffff"/><rect x="345.5" y="207.3" width="34.55" height="34.55" fill="#ff4471"/><polygon points="345.5,207.3 380.05,207.3 380.05,241.85000000000002" fill="#ff9bb3"/><rect x="380.05" y="207.3" width="34.55" height="34.55" fill="#ff90aa"/><polygon points="380.05,207.3 414.6,241.85000000000002 380.05,241.85000000000002" fill="#ff7495"/><rect x="345.5" y="241.85" width="34.55" height="34.55" fill="#284ce3"/><polygon points="345.5,241.85 380.05,241.85 380.05,276.4" fill="#5e79ea"/><rect x="380.05" y="241.85" width="34.55" height="34.55" fill="#ff6187"/><polygon points="414.6,241.85 414.6,276.4 380.05,276.4" fill="#eceffd"/><rect x="414.6" y="207.3" width="69.1" height="69.1" fill="#ff3f6d"/><polygon points="414.6,207.3 483.70000000000005,207.3 483.70000000000005,276.4" fill="#ff6388"/><rect x="483.69999999999993" y="207.29999999999998" width="69.1" height="69.1" fill="#ffffff"/><rect x="483.7" y="207.3" width="34.55" height="34.55" fill="#fffeff"/><polygon points="518.25,207.3 518.25,241.85000000000002 483.7,241.85000000000002" fill="#91a4f1"/><rect x="518.25" y="207.3" width="34.55" height="34.55" fill="#ffeef2"/><polygon points="518.25,207.3 552.8,207.3 552.8,241.85000000000002" fill="#ff5f85"/><rect x="483.7" y="241.85" width="34.55" height="34.55" fill="#2046e2"/><polygon points="518.25,241.85 518.25,276.4 483.7,276.4" fill="#7d93ee"/><rect x="518.25" y="241.85" width="34.55" height="34.55" fill="#ff90aa"/><polygon points="552.8,241.85 552.8,276.4 518.25,276.4" fill="#99aaf2"/><rect x="552.8" y="207.3" width="69.1" height="69.1" fill="#ff7f9d"/><polygon points="621.9,207.3 621.9,276.4 552.8,276.4" fill="#ff3867"/><rect x="621.9" y="207.3" width="69.1" height="69.1" fill="#dce2fa"/><polygon points="621.9,207.3 691,276.4 621.9,276.4" fill="#ffdce5"/><rect x="691" y="207.3" width="69.1" height="69.1" fill="#ffdae3"/><polygon points="760.1,207.3 760.1,276.4 691,276.4" fill="#ffd4de"/><rect x="760.0999999999999" y="207.29999999999998" width="69.1" height="69.1" fill="#ffffff"/><rect x="760.1" y="207.3" width="34.55" height="34.55" fill="#4363e7"/><polygon points="794.65,207.3 794.65,241.85000000000002 760.1,241.85000000000002" fill="#ffaec2"/><rect x="794.65" y="207.3" width="34.55" height="34.55" fill="#ffdbe4"/><polygon points="829.1999999999999,207.3 829.1999999999999,241.85000000000002 794.65,241.85000000000002" fill="#ffc1d0"/><rect x="760.1" y="241.85" width="34.55" height="34.55" fill="#ff6086"/><polygon points="760.1,241.85 794.65,241.85 760.1,276.4" fill="#ff88a4"/><rect x="794.65" y="241.85" width="34.55" height="34.55" fill="#ff7a9a"/><polygon points="794.65,241.85 829.1999999999999,241.85 794.65,276.4" fill="#ff7092"/><rect x="829.2" y="207.3" width="69.1" height="69.1" fill="#ffdde5"/><polygon points="829.2,207.3 898.3000000000001,276.4 829.2,276.4" fill="#ffb3c5"/><rect x="898.3" y="207.29999999999998" width="69.1" height="69.1" fill="#ffffff"/><rect x="898.3" y="207.3" width="34.55" height="34.55" fill="#ffcfda"/><polygon points="898.3,207.3 932.8499999999999,207.3 898.3,241.85000000000002" fill="#ffe0e7"/><rect x="932.85" y="207.3" width="34.55" height="34.55" fill="#6d85ec"/><polygon points="967.4,207.3 967.4,241.85000000000002 932.85,241.85000000000002" fill="#aebcf4"/><rect x="898.3" y="241.85" width="34.55" height="34.55" fill="#3a5be5"/><polygon points="898.3,241.85 932.8499999999999,241.85 898.3,276.4" fill="#859aef"/><rect x="932.85" y="241.85" width="34.55" height="34.55" fill="#8a9ef0"/><polygon points="932.85,241.85 967.4,241.85 932.85,276.4" fill="#ff7193"/><rect x="967.4" y="207.3" width="69.1" height="69.1" fill="#617bea"/><polygon points="967.4,207.3 1036.5,207.3 967.4,276.4" fill="#4463e7"/><rect x="1036.5" y="207.3" width="69.1" height="69.1" fill="#ff5c83"/><polygon points="1036.5,207.3 1105.6,207.3 1105.6,276.4" fill="#264be3"/><rect x="0" y="276.4" width="69.1" height="69.1" fill="#ffffff"/><rect x="0" y="276.4" width="34.55" height="34.55" fill="#ff4c77"/><polygon points="0,276.4 34.55,310.95 0,310.95" fill="#e3e8fb"/><rect x="34.55" y="276.4" width="34.55" height="34.55" fill="#8ca0f0"/><polygon points="69.1,276.4 69.1,310.95 34.55,310.95" fill="#ffaec1"/><rect x="0" y="310.95" width="34.55" height="34.55" fill="#afbcf5"/><polygon points="0,310.95 34.55,310.95 0,345.5" fill="#ff7495"/><rect x="34.55" y="310.95" width="34.55" height="34.55" fill="#ff7595"/><polygon points="34.55,310.95 69.1,310.95 34.55,345.5" fill="#5b76ea"/><rect x="69.1" y="276.4" width="69.1" height="69.1" fill="#ff4c77"/><polygon points="69.1,276.4 138.2,345.5 69.1,345.5" fill="#ffdae2"/><rect x="138.2" y="276.4" width="69.1" height="69.1" fill="#2f52e4"/><polygon points="207.29999999999998,276.4 207.29999999999998,345.5 138.2,345.5" fill="#3f5fe6"/><rect x="207.29999999999998" y="276.4" width="69.1" height="69.1" fill="#ffffff"/><rect x="207.3" y="276.4" width="34.55" height="34.55" fill="#edf0fd"/><polygon points="207.3,276.4 241.85000000000002,310.95 207.3,310.95" fill="#fff7f9"/><rect x="241.85" y="276.4" width="34.55" height="34.55" fill="#ff3f6d"/><polygon points="241.85,276.4 276.4,276.4 241.85,310.95" fill="#fff0f4"/><rect x="207.3" y="310.95" width="34.55" height="34.55" fill="#7088ec"/><polygon points="207.3,310.95 241.85000000000002,310.95 207.3,345.5" fill="#ff4873"/><rect x="241.85" y="310.95" width="34.55" height="34.55" fill="#d8defa"/><polygon points="241.85,310.95 276.4,310.95 241.85,345.5" fill="#ffa6bb"/><rect x="276.4" y="276.4" width="69.1" height="69.1" fill="#cbd4f8"/><polygon points="276.4,276.4 345.5,345.5 276.4,345.5" fill="#ff9fb6"/><rect x="345.5" y="276.4" width="69.1" height="69.1" fill="#ffffff"/><rect x="345.5" y="276.4" width="34.55" height="34.55" fill="#ffbbcb"/><polygon points="345.5,276.4 380.05,310.95 345.5,310.95" fill="#ffecf1"/><rect x="380.05" y="276.4" width="34.55" height="34.55" fill="#ff93ad"/><polygon points="380.05,276.4 414.6,310.95 380.05,310.95" fill="#fffdfd"/><rect x="345.5" y="310.95" width="34.55" height="34.55" fill="#2b4fe3"/><polygon points="380.05,310.95 380.05,345.5 345.5,345.5" fill="#ffb5c6"/><rect x="380.05" y="310.95" width="34.55" height="34.55" fill="#8297ef"/><polygon points="380.05,310.95 414.6,310.95 380.05,345.5" fill="#ffeff3"/><rect x="414.59999999999997" y="276.4" width="69.1" height="69.1" fill="#ffffff"/><rect x="414.6" y="276.4" width="34.55" height="34.55" fill="#ff6d90"/><polygon points="414.6,276.4 449.15000000000003,276.4 449.15000000000003,310.95" fill="#ffeaef"/><rect x="449.15" y="276.4" width="34.55" height="34.55" fill="#ff3666"/><polygon points="483.7,276.4 483.7,310.95 449.15,310.95" fill="#ff7394"/><rect x="414.6" y="310.95" width="34.55" height="34.55" fill="#5572e9"/><polygon points="414.6,310.95 449.15000000000003,310.95 414.6,345.5" fill="#ff678b"/><rect x="449.15" y="310.95" width="34.55" height="34.55" fill="#2147e2"/><polygon points="449.15,310.95 483.7,345.5 449.15,345.5" fill="#fbfcff"/><rect x="483.7" y="276.4" width="69.1" height="69.1" fill="#dfe4fb"/><polygon points="483.7,276.4 552.8,276.4 552.8,345.5" fill="#d8dffa"/><rect x="552.8" y="276.4" width="69.1" height="69.1" fill="#c7d0f8"/><polygon points="552.8,276.4 621.9,345.5 552.8,345.5" fill="#e2e7fb"/><rect x="621.9" y="276.4" width="69.1" height="69.1" fill="#3d5ee6"/><polygon points="621.9,276.4 691,276.4 621.9,345.5" fill="#8599ef"/><rect x="691" y="276.4" width="69.1" height="69.1" fill="#ffffff"/><rect x="691" y="276.4" width="34.55" height="34.55" fill="#b2bff5"/><polygon points="691,276.4 725.55,276.4 725.55,310.95" fill="#8ca0f0"/><rect x="725.55" y="276.4" width="34.55" height="34.55" fill="#bac6f6"/><polygon points="725.55,276.4 760.0999999999999,276.4 760.0999999999999,310.95" fill="#ffd8e1"/><rect x="691" y="310.95" width="34.55" height="34.55" fill="#2247e2"/><polygon points="691,310.95 725.55,310.95 691,345.5" fill="#ff82a0"/><rect x="725.55" y="310.95" width="34.55" height="34.55" fill="#ff3a69"/><polygon points="725.55,310.95 760.0999999999999,310.95 760.0999999999999,345.5" fill="#6b84ec"/><rect x="760.1" y="276.4" width="69.1" height="69.1" fill="#6982ec"/><polygon points="760.1,276.4 829.2,345.5 760.1,345.5" fill="#92a5f1"/><rect x="829.1999999999999" y="276.4" width="69.1" height="69.1" fill="#ffffff"/><rect x="829.2" y="276.4" width="34.55" height="34.55" fill="#8a9df0"/><polygon points="829.2,276.4 863.75,276.4 829.2,310.95" fill="#e4e9fc"/><rect x="863.75" y="276.4" width="34.55" height="34.55" fill="#6881eb"/><polygon points="863.75,276.4 898.3,276.4 898.3,310.95" fill="#ced6f9"/><rect x="829.2" y="310.95" width="34.55" height="34.55" fill="#ffa7bc"/><polygon points="829.2,310.95 863.75,310.95 829.2,345.5" fill="#2c50e4"/><rect x="863.75" y="310.95" width="34.55" height="34.55" fill="#fcfdff"/><polygon points="863.75,310.95 898.3,310.95 863.75,345.5" fill="#ff93ad"/><rect x="898.3" y="276.4" width="69.1" height="69.1" fill="#778eed"/><polygon points="898.3,276.4 967.4,276.4 898.3,345.5" fill="#ff7898"/><rect x="967.3999999999999" y="276.4" width="69.1" height="69.1" fill="#ffffff"/><rect x="967.4" y="276.4" width="34.55" height="34.55" fill="#ff5c83"/><polygon points="1001.9499999999999,276.4 1001.9499999999999,310.95 967.4,310.95" fill="#d2d9f9"/><rect x="1001.95" y="276.4" width="34.55" height="34.55" fill="#ffaec1"/><polygon points="1001.95,276.4 1036.5,276.4 1036.5,310.95" fill="#8297ef"/><rect x="967.4" y="310.95" width="34.55" height="34.55" fill="#ff3767"/><polygon points="1001.9499999999999,310.95 1001.9499999999999,345.5 967.4,345.5" fill="#738bed"/><rect x="1001.95" y="310.95" width="34.55" height="34.55" fill="#ffbfcf"/><polygon points="1001.95,310.95 1036.5,310.95 1001.95,345.5" fill="#ffc6d4"/><rect x="1036.5" y="276.4" width="69.1" height="69.1" fill="#6a83ec"/><polygon points="1036.5,276.4 1105.6,345.5 1036.5,345.5" fill="#1940e1"/><rect x="0" y="345.5" width="69.1" height="69.1" fill="#ffffff"/><rect x="0" y="345.5" width="34.55" height="34.55" fill="#94a6f1"/><polygon points="0,345.5 34.55,345.5 0,380.05" fill="#ff7092"/><rect x="34.55" y="345.5" width="34.55" height="34.55" fill="#ff7697"/><polygon points="34.55,345.5 69.1,345.5 34.55,380.05" fill="#e5e9fc"/><rect x="0" y="380.05" width="34.55" height="34.55" fill="#d7defa"/><polygon points="0,380.05 34.55,380.05 34.55,414.6" fill="#ff84a1"/><rect x="34.55" y="380.05" width="34.55" height="34.55" fill="#d2d9f9"/><polygon points="69.1,380.05 69.1,414.6 34.55,414.6" fill="#ffb4c6"/><rect x="69.1" y="345.5" width="69.1" height="69.1" fill="#ffffff"/><rect x="69.1" y="345.5" width="34.55" height="34.55" fill="#eaedfc"/><polygon points="69.1,345.5 103.64999999999999,380.05 69.1,380.05" fill="#ffe5eb"/><rect x="103.65" y="345.5" width="34.55" height="34.55" fill="#ff6c8f"/><polygon points="138.2,345.5 138.2,380.05 103.65,380.05" fill="#d0d8f9"/><rect x="69.1" y="380.05" width="34.55" height="34.55" fill="#8095ee"/><polygon points="69.1,380.05 103.64999999999999,380.05 103.64999999999999,414.6" fill="#ff517b"/><rect x="103.65" y="380.05" width="34.55" height="34.55" fill="#4d6be8"/><polygon points="138.2,380.05 138.2,414.6 103.65,414.6" fill="#ff82a0"/><rect x="138.2" y="345.5" width="69.1" height="69.1" fill="#f1f3fd"/><polygon points="138.2,345.5 207.29999999999998,345.5 207.29999999999998,414.6" fill="#ff4975"/><rect x="207.29999999999998" y="345.5" width="69.1" height="69.1" fill="#ffffff"/><rect x="207.3" y="345.5" width="34.55" height="34.55" fill="#8fa2f0"/><polygon points="207.3,345.5 241.85000000000002,345.5 241.85000000000002,380.05" fill="#ffcad6"/><rect x="241.85" y="345.5" width="34.55" height="34.55" fill="#97a9f2"/><polygon points="276.4,345.5 276.4,380.05 241.85,380.05" fill="#ff7b9b"/><rect x="207.3" y="380.05" width="34.55" height="34.55" fill="#ffafc2"/><polygon points="241.85000000000002,380.05 241.85000000000002,414.6 207.3,414.6" fill="#ff3b6a"/><rect x="241.85" y="380.05" width="34.55" height="34.55" fill="#6e86ec"/><polygon points="241.85,380.05 276.4,380.05 276.4,414.6" fill="#ff7e9d"/><rect x="276.4" y="345.5" width="69.1" height="69.1" fill="#ffffff"/><rect x="276.4" y="345.5" width="34.55" height="34.55" fill="#ff82a0"/><polygon points="276.4,345.5 310.95,345.5 310.95,380.05" fill="#2a4ee3"/><rect x="310.95" y="345.5" width="34.55" height="34.55" fill="#607bea"/><polygon points="310.95,345.5 345.5,380.05 310.95,380.05" fill="#ff85a2"/><rect x="276.4" y="380.05" width="34.55" height="34.55" fill="#95a7f1"/><polygon points="276.4,380.05 310.95,414.6 276.4,414.6" fill="#ffbdcc"/><rect x="310.95" y="380.05" width="34.55" height="34.55" fill="#7990ee"/><polygon points="345.5,380.05 345.5,414.6 310.95,414.6" fill="#ff96af"/><rect x="345.5" y="345.5" width="69.1" height="69.1" fill="#ffffff"/><rect x="345.5" y="345.5" width="34.55" height="34.55" fill="#ffa7bc"/><polygon points="380.05,345.5 380.05,380.05 345.5,380.05" fill="#ff7f9d"/><rect x="380.05" y="345.5" width="34.55" height="34.55" fill="#8297ef"/><polygon points="414.6,345.5 414.6,380.05 380.05,380.05" fill="#ff6086"/><rect x="345.5" y="380.05" width="34.55" height="34.55" fill="#4060e6"/><polygon points="345.5,380.05 380.05,380.05 380.05,414.6" fill="#e0e5fb"/><rect x="380.05" y="380.05" width="34.55" height="34.55" fill="#fff2f5"/><polygon points="380.05,380.05 414.6,380.05 380.05,414.6" fill="#ff4471"/><rect x="414.6" y="345.5" width="69.1" height="69.1" fill="#ff5f85"/><polygon points="414.6,345.5 483.70000000000005,345.5 483.70000000000005,414.6" fill="#ffc9d6"/><rect x="483.69999999999993" y="345.5" width="69.1" height="69.1" fill="#ffffff"/><rect x="483.7" y="345.5" width="34.55" height="34.55" fill="#8da0f0"/><polygon points="483.7,345.5 518.25,345.5 483.7,380.05" fill="#ffc1cf"/><rect x="518.25" y="345.5" width="34.55" height="34.55" fill="#ff3767"/><polygon points="552.8,345.5 552.8,380.05 518.25,380.05" fill="#4161e6"/><rect x="483.7" y="380.05" width="34.55" height="34.55" fill="#617ceb"/><polygon points="483.7,380.05 518.25,414.6 483.7,414.6" fill="#fffeff"/><rect x="518.25" y="380.05" width="34.55" height="34.55" fill="#ff668a"/><polygon points="518.25,380.05 552.8,380.05 552.8,414.6" fill="#e0e5fb"/><rect x="552.8" y="345.5" width="69.1" height="69.1" fill="#ffffff"/><rect x="552.8" y="345.5" width="34.55" height="34.55" fill="#fff2f5"/><polygon points="552.8,345.5 587.3499999999999,345.5 587.3499999999999,380.05" fill="#9bacf2"/><rect x="587.35" y="345.5" width="34.55" height="34.55" fill="#ff4772"/><polygon points="587.35,345.5 621.9,380.05 587.35,380.05" fill="#9cadf2"/><rect x="552.8" y="380.05" width="34.55" height="34.55" fill="#ffeef2"/><polygon points="587.3499999999999,380.05 587.3499999999999,414.6 552.8,414.6" fill="#c1ccf7"/><rect x="587.35" y="380.05" width="34.55" height="34.55" fill="#f6f7fe"/><polygon points="587.35,380.05 621.9,380.05 587.35,414.6" fill="#c4cef7"/><rect x="621.9" y="345.5" width="69.1" height="69.1" fill="#9cadf2"/><polygon points="621.9,345.5 691,414.6 621.9,414.6" fill="#6882eb"/><rect x="691" y="345.5" width="69.1" height="69.1" fill="#ffffff"/><rect x="691" y="345.5" width="34.55" height="34.55" fill="#ffb8c9"/><polygon points="725.55,345.5 725.55,380.05 691,380.05" fill="#5572e9"/><rect x="725.55" y="345.5" width="34.55" height="34.55" fill="#d5dcfa"/><polygon points="725.55,345.5 760.0999999999999,345.5 760.0999999999999,380.05" fill="#fff6f8"/><rect x="691" y="380.05" width="34.55" height="34.55" fill="#ffd9e2"/><polygon points="725.55,380.05 725.55,414.6 691,414.6" fill="#f6f7fe"/><rect x="725.55" y="380.05" width="34.55" height="34.55" fill="#ff668a"/><polygon points="725.55,380.05 760.0999999999999,414.6 725.55,414.6" fill="#ffb2c4"/><rect x="760.1" y="345.5" width="69.1" height="69.1" fill="#183fe1"/><polygon points="829.2,345.5 829.2,414.6 760.1,414.6" fill="#ff9ab2"/><rect x="829.2" y="345.5" width="69.1" height="69.1" fill="#ff426f"/><polygon points="829.2,345.5 898.3000000000001,345.5 829.2,414.6" fill="#ff3968"/><rect x="898.3" y="345.5" width="69.1" height="69.1" fill="#ffffff"/><rect x="898.3" y="345.5" width="34.55" height="34.55" fill="#cfd7f9"/><polygon points="898.3,345.5 932.8499999999999,380.05 898.3,380.05" fill="#fff6f8"/><rect x="932.85" y="345.5" width="34.55" height="34.55" fill="#b1bef5"/><polygon points="932.85,345.5 967.4,380.05 932.85,380.05" fill="#fff3f6"/><rect x="898.3" y="380.05" width="34.55" height="34.55" fill="#96a8f1"/><polygon points="898.3,380.05 932.8499999999999,380.05 898.3,414.6" fill="#ff3d6b"/><rect x="932.85" y="380.05" width="34.55" height="34.55" fill="#ffa0b6"/><polygon points="932.85,380.05 967.4,380.05 967.4,414.6" fill="#ffe5eb"/><rect x="967.3999999999999" y="345.5" width="69.1" height="69.1" fill="#ffffff"/><rect x="967.4" y="345.5" width="34.55" height="34.55" fill="#ffffff"/><polygon points="967.4,345.5 1001.9499999999999,380.05 967.4,380.05" fill="#2248e2"/><rect x="1001.95" y="345.5" width="34.55" height="34.55" fill="#3457e5"/><polygon points="1036.5,345.5 1036.5,380.05 1001.95,380.05" fill="#ff6388"/><rect x="967.4" y="380.05" width="34.55" height="34.55" fill="#ffc6d3"/><polygon points="967.4,380.05 1001.9499999999999,380.05 967.4,414.6" fill="#ffaabe"/><rect x="1001.95" y="380.05" width="34.55" height="34.55" fill="#6680eb"/><polygon points="1001.95,380.05 1036.5,414.6 1001.95,414.6" fill="#d9dffa"/><rect x="1036.5" y="345.5" width="69.1" height="69.1" fill="#ff97b0"/><polygon points="1105.6,345.5 1105.6,414.6 1036.5,414.6" fill="#a5b4f3"/><rect x="0" y="414.59999999999997" width="69.1" height="69.1" fill="#ffffff"/><rect x="0" y="414.6" width="34.55" height="34.55" fill="#ffbdcd"/><polygon points="0,414.6 34.55,414.6 34.55,449.15000000000003" fill="#ff9db4"/><rect x="34.55" y="414.6" width="34.55" height="34.55" fill="#ffc5d3"/><polygon points="34.55,414.6 69.1,449.15000000000003 34.55,449.15000000000003" fill="#ff89a5"/><rect x="0" y="449.15" width="34.55" height="34.55" fill="#6c85ec"/><polygon points="0,449.15 34.55,449.15 34.55,483.7" fill="#ff9db5"/><rect x="34.55" y="449.15" width="34.55" height="34.55" fill="#ffb7c8"/><polygon points="34.55,449.15 69.1,449.15 69.1,483.7" fill="#ff3b6a"/><rect x="69.1" y="414.59999999999997" width="69.1" height="69.1" fill="#ffffff"/><rect x="69.1" y="414.6" width="34.55" height="34.55" fill="#8a9df0"/><polygon points="69.1,414.6 103.64999999999999,414.6 69.1,449.15000000000003" fill="#6f87ec"/><rect x="103.65" y="414.6" width="34.55" height="34.55" fill="#ffaabe"/><polygon points="103.65,414.6 138.2,449.15000000000003 103.65,449.15000000000003" fill="#f0f3fd"/><rect x="69.1" y="449.15" width="34.55" height="34.55" fill="#ffb3c5"/><polygon points="69.1,449.15 103.64999999999999,449.15 103.64999999999999,483.7" fill="#ff4370"/><rect x="103.65" y="449.15" width="34.55" height="34.55" fill="#f1f4fd"/><polygon points="103.65,449.15 138.2,449.15 103.65,483.7" fill="#ff7c9b"/><rect x="138.2" y="414.6" width="69.1" height="69.1" fill="#bac5f6"/><polygon points="138.2,414.6 207.29999999999998,414.6 207.29999999999998,483.70000000000005" fill="#e4e8fb"/><rect x="207.29999999999998" y="414.59999999999997" width="69.1" height="69.1" fill="#ffffff"/><rect x="207.3" y="414.6" width="34.55" height="34.55" fill="#ff6f91"/><polygon points="207.3,414.6 241.85000000000002,414.6 207.3,449.15000000000003" fill="#ebeefc"/><rect x="241.85" y="414.6" width="34.55" height="34.55" fill="#ff9cb4"/><polygon points="241.85,414.6 276.4,414.6 276.4,449.15000000000003" fill="#7e94ee"/><rect x="207.3" y="449.15" width="34.55" height="34.55" fill="#ffc4d2"/><polygon points="241.85000000000002,449.15 241.85000000000002,483.7 207.3,483.7" fill="#8297ef"/><rect x="241.85" y="449.15" width="34.55" height="34.55" fill="#ffc6d4"/><polygon points="241.85,449.15 276.4,449.15 276.4,483.7" fill="#ffdae3"/><rect x="276.4" y="414.59999999999997" width="69.1" height="69.1" fill="#ffffff"/><rect x="276.4" y="414.6" width="34.55" height="34.55" fill="#ffd3dd"/><polygon points="276.4,414.6 310.95,414.6 310.95,449.15000000000003" fill="#ff7f9d"/><rect x="310.95" y="414.6" width="34.55" height="34.55" fill="#1b41e1"/><polygon points="310.95,414.6 345.5,414.6 345.5,449.15000000000003" fill="#fff1f4"/><rect x="276.4" y="449.15" width="34.55" height="34.55" fill="#395ae5"/><polygon points="276.4,449.15 310.95,449.15 310.95,483.7" fill="#c3cdf7"/><rect x="310.95" y="449.15" width="34.55" height="34.55" fill="#ffbdcd"/><polygon points="310.95,449.15 345.5,449.15 310.95,483.7" fill="#ff5980"/><rect x="345.5" y="414.6" width="69.1" height="69.1" fill="#ff8da8"/><polygon points="345.5,414.6 414.6,483.70000000000005 345.5,483.70000000000005" fill="#ff7495"/><rect x="414.59999999999997" y="414.59999999999997" width="69.1" height="69.1" fill="#ffffff"/><rect x="414.6" y="414.6" width="34.55" height="34.55" fill="#758ced"/><polygon points="414.6,414.6 449.15000000000003,414.6 449.15000000000003,449.15000000000003" fill="#f2f4fd"/><rect x="449.15" y="414.6" width="34.55" height="34.55" fill="#ff4874"/><polygon points="449.15,414.6 483.7,414.6 483.7,449.15000000000003" fill="#aab8f4"/><rect x="414.6" y="449.15" width="34.55" height="34.55" fill="#395ae5"/><polygon points="449.15000000000003,449.15 449.15000000000003,483.7 414.6,483.7" fill="#ff517b"/><rect x="449.15" y="449.15" width="34.55" height="34.55" fill="#e5e9fc"/><polygon points="449.15,449.15 483.7,483.7 449.15,483.7" fill="#ffacbf"/><rect x="483.7" y="414.6" width="69.1" height="69.1" fill="#6680eb"/><polygon points="483.7,414.6 552.8,414.6 483.7,483.70000000000005" fill="#3053e4"/><rect x="552.8" y="414.59999999999997" width="69.1" height="69.1" fill="#ffffff"/><rect x="552.8" y="414.6" width="34.55" height="34.55" fill="#ff4672"/><polygon points="552.8,414.6 587.3499999999999,449.15000000000003 552.8,449.15000000000003" fill="#ff9cb4"/><rect x="587.35" y="414.6" width="34.55" height="34.55" fill="#889cf0"/><polygon points="587.35,414.6 621.9,414.6 621.9,449.15000000000003" fill="#eaeefc"/><rect x="552.8" y="449.15" width="34.55" height="34.55" fill="#ff3b69"/><polygon points="552.8,449.15 587.3499999999999,449.15 552.8,483.7" fill="#ff819f"/><rect x="587.35" y="449.15" width="34.55" height="34.55" fill="#5975e9"/><polygon points="587.35,449.15 621.9,483.7 587.35,483.7" fill="#607bea"/><rect x="621.9" y="414.6" width="69.1" height="69.1" fill="#ff819f"/><polygon points="621.9,414.6 691,414.6 691,483.70000000000005" fill="#ffeef2"/><rect x="691" y="414.6" width="69.1" height="69.1" fill="#788fed"/><polygon points="691,414.6 760.1,414.6 760.1,483.70000000000005" fill="#c5cff8"/><rect x="760.1" y="414.6" width="69.1" height="69.1" fill="#ff3e6c"/><polygon points="760.1,414.6 829.2,414.6 760.1,483.70000000000005" fill="#d2daf9"/><rect x="829.1999999999999" y="414.59999999999997" width="69.1" height="69.1" fill="#ffffff"/><rect x="829.2" y="414.6" width="34.55" height="34.55" fill="#ff6e91"/><polygon points="829.2,414.6 863.75,414.6 863.75,449.15000000000003" fill="#9aabf2"/><rect x="863.75" y="414.6" width="34.55" height="34.55" fill="#ff4471"/><polygon points="863.75,414.6 898.3,414.6 863.75,449.15000000000003" fill="#8196ef"/><rect x="829.2" y="449.15" width="34.55" height="34.55" fill="#b7c3f6"/><polygon points="863.75,449.15 863.75,483.7 829.2,483.7" fill="#ffecf1"/><rect x="863.75" y="449.15" width="34.55" height="34.55" fill="#ffa6bb"/><polygon points="863.75,449.15 898.3,483.7 863.75,483.7" fill="#4867e7"/><rect x="898.3" y="414.6" width="69.1" height="69.1" fill="#ffbecd"/><polygon points="898.3,414.6 967.4,414.6 967.4,483.70000000000005" fill="#ff5880"/><rect x="967.4" y="414.6" width="69.1" height="69.1" fill="#ffecf0"/><polygon points="967.4,414.6 1036.5,414.6 1036.5,483.70000000000005" fill="#6d86ec"/><rect x="1036.5" y="414.6" width="69.1" height="69.1" fill="#ff6d90"/><polygon points="1036.5,414.6 1105.6,414.6 1036.5,483.70000000000005" fill="#e2e7fb"/><rect x="0" y="483.69999999999993" width="69.1" height="69.1" fill="#ffffff"/><rect x="0" y="483.7" width="34.55" height="34.55" fill="#a0b0f3"/><polygon points="0,483.7 34.55,483.7 0,518.25" fill="#879bef"/><rect x="34.55" y="483.7" width="34.55" height="34.55" fill="#3b5ce6"/><polygon points="34.55,483.7 69.1,518.25 34.55,518.25" fill="#ff9ab2"/><rect x="0" y="518.25" width="34.55" height="34.55" fill="#ff698d"/><polygon points="0,518.25 34.55,518.25 0,552.8" fill="#3e5fe6"/><rect x="34.55" y="518.25" width="34.55" height="34.55" fill="#607bea"/><polygon points="34.55,518.25 69.1,552.8 34.55,552.8" fill="#2146e2"/><rect x="69.1" y="483.69999999999993" width="69.1" height="69.1" fill="#ffffff"/><rect x="69.1" y="483.7" width="34.55" height="34.55" fill="#ff406d"/><polygon points="69.1,483.7 103.64999999999999,483.7 69.1,518.25" fill="#fdfdff"/><rect x="103.65" y="483.7" width="34.55" height="34.55" fill="#6a83ec"/><polygon points="138.2,483.7 138.2,518.25 103.65,518.25" fill="#ff8faa"/><rect x="69.1" y="518.25" width="34.55" height="34.55" fill="#7d93ee"/><polygon points="69.1,518.25 103.64999999999999,552.8 69.1,552.8" fill="#c3cdf7"/><rect x="103.65" y="518.25" width="34.55" height="34.55" fill="#748ced"/><polygon points="103.65,518.25 138.2,518.25 138.2,552.8" fill="#ff93ad"/><rect x="138.2" y="483.7" width="69.1" height="69.1" fill="#9aabf2"/><polygon points="138.2,483.7 207.29999999999998,483.7 207.29999999999998,552.8" fill="#4564e7"/><rect x="207.3" y="483.7" width="69.1" height="69.1" fill="#ff4b76"/><polygon points="207.3,483.7 276.4,483.7 207.3,552.8" fill="#c1cbf7"/><rect x="276.4" y="483.69999999999993" width="69.1" height="69.1" fill="#ffffff"/><rect x="276.4" y="483.7" width="34.55" height="34.55" fill="#fffbfc"/><polygon points="310.95,483.7 310.95,518.25 276.4,518.25" fill="#9faff2"/><rect x="310.95" y="483.7" width="34.55" height="34.55" fill="#ff3666"/><polygon points="345.5,483.7 345.5,518.25 310.95,518.25" fill="#ff7193"/><rect x="276.4" y="518.25" width="34.55" height="34.55" fill="#ffa1b8"/><polygon points="276.4,518.25 310.95,518.25 276.4,552.8" fill="#8ea1f0"/><rect x="310.95" y="518.25" width="34.55" height="34.55" fill="#3c5de6"/><polygon points="310.95,518.25 345.5,518.25 310.95,552.8" fill="#395ae5"/><rect x="345.5" y="483.69999999999993" width="69.1" height="69.1" fill="#ffffff"/><rect x="345.5" y="483.7" width="34.55" height="34.55" fill="#ff4873"/><polygon points="345.5,483.7 380.05,483.7 380.05,518.25" fill="#ff5e84"/><rect x="380.05" y="483.7" width="34.55" height="34.55" fill="#ffd8e1"/><polygon points="380.05,483.7 414.6,483.7 380.05,518.25" fill="#6680eb"/><rect x="345.5" y="518.25" width="34.55" height="34.55" fill="#b1bef5"/><polygon points="345.5,518.25 380.05,518.25 345.5,552.8" fill="#95a7f1"/><rect x="380.05" y="518.25" width="34.55" height="34.55" fill="#fdfdff"/><polygon points="380.05,518.25 414.6,518.25 380.05,552.8" fill="#ffa5ba"/><rect x="414.59999999999997" y="483.69999999999993" width="69.1" height="69.1" fill="#ffffff"/><rect x="414.6" y="483.7" width="34.55" height="34.55" fill="#ff97b0"/><polygon points="449.15000000000003,483.7 449.15000000000003,518.25 414.6,518.25" fill="#d2daf9"/><rect x="449.15" y="483.7" width="34.55" height="34.55" fill="#ff3c6a"/><polygon points="483.7,483.7 483.7,518.25 449.15,518.25" fill="#93a5f1"/><rect x="414.6" y="518.25" width="34.55" height="34.55" fill="#ff85a2"/><polygon points="414.6,518.25 449.15000000000003,518.25 414.6,552.8" fill="#ffa8bd"/><rect x="449.15" y="518.25" width="34.55" height="34.55" fill="#ff7394"/><polygon points="449.15,518.25 483.7,518.25 483.7,552.8" fill="#adbbf4"/><rect x="483.7" y="483.7" width="69.1" height="69.1" fill="#6e86ec"/><polygon points="483.7,483.7 552.8,483.7 552.8,552.8" fill="#ffc1d0"/><rect x="552.8" y="483.7" width="69.1" height="69.1" fill="#8095ee"/><polygon points="552.8,483.7 621.9,483.7 552.8,552.8" fill="#ffb7c8"/><rect x="621.9" y="483.7" width="69.1" height="69.1" fill="#ff7092"/><polygon points="621.9,483.7 691,483.7 691,552.8" fill="#ff87a3"/><rect x="691" y="483.7" width="69.1" height="69.1" fill="#ff3f6d"/><polygon points="691,483.7 760.1,483.7 691,552.8" fill="#ff3665"/><rect x="760.1" y="483.7" width="69.1" height="69.1" fill="#f9fafe"/><polygon points="760.1,483.7 829.2,483.7 829.2,552.8" fill="#90a3f1"/><rect x="829.2" y="483.7" width="69.1" height="69.1" fill="#ff547d"/><polygon points="829.2,483.7 898.3000000000001,483.7 829.2,552.8" fill="#bdc8f6"/><rect x="898.3" y="483.7" width="69.1" height="69.1" fill="#ffd7e0"/><polygon points="898.3,483.7 967.4,483.7 898.3,552.8" fill="#ff5d84"/><rect x="967.3999999999999" y="483.69999999999993" width="69.1" height="69.1" fill="#ffffff"/><rect x="967.4" y="483.7" width="34.55" height="34.55" fill="#98a9f2"/><polygon points="967.4,483.7 1001.9499999999999,518.25 967.4,518.25" fill="#ff91ab"/><rect x="1001.95" y="483.7" width="34.55" height="34.55" fill="#ffdfe7"/><polygon points="1001.95,483.7 1036.5,483.7 1001.95,518.25" fill="#ff6589"/><rect x="967.4" y="518.25" width="34.55" height="34.55" fill="#ff98b1"/><polygon points="967.4,518.25 1001.9499999999999,518.25 1001.9499999999999,552.8" fill="#dee4fb"/><rect x="1001.95" y="518.25" width="34.55" height="34.55" fill="#4968e7"/><polygon points="1001.95,518.25 1036.5,552.8 1001.95,552.8" fill="#b9c5f6"/><rect x="1036.5" y="483.7" width="69.1" height="69.1" fill="#ffc9d6"/><polygon points="1036.5,483.7 1105.6,483.7 1036.5,552.8" fill="#ff3a69"/><rect x="0" y="552.8" width="69.1" height="69.1" fill="#ff9db5"/><polygon points="0,552.8 69.1,552.8 69.1,621.9" fill="#3053e4"/><rect x="69.1" y="552.8" width="69.1" height="69.1" fill="#ffb6c8"/><polygon points="138.2,552.8 138.2,621.9 69.1,621.9" fill="#ff3c6b"/><rect x="138.2" y="552.8" width="69.1" height="69.1" fill="#9faff3"/><polygon points="207.29999999999998,552.8 207.29999999999998,621.9 138.2,621.9" fill="#ff3e6c"/><rect x="207.29999999999998" y="552.8" width="69.1" height="69.1" fill="#ffffff"/><rect x="207.3" y="552.8" width="34.55" height="34.55" fill="#3355e4"/><polygon points="207.3,552.8 241.85000000000002,552.8 207.3,587.3499999999999" fill="#637deb"/><rect x="241.85" y="552.8" width="34.55" height="34.55" fill="#dae0fa"/><polygon points="241.85,552.8 276.4,552.8 276.4,587.3499999999999" fill="#90a2f1"/><rect x="207.3" y="587.35" width="34.55" height="34.55" fill="#ffeef2"/><polygon points="241.85000000000002,587.35 241.85000000000002,621.9 207.3,621.9" fill="#e3e8fb"/><rect x="241.85" y="587.35" width="34.55" height="34.55" fill="#3759e5"/><polygon points="241.85,587.35 276.4,587.35 276.4,621.9" fill="#2146e2"/><rect x="276.4" y="552.8" width="69.1" height="69.1" fill="#ff4471"/><polygon points="276.4,552.8 345.5,552.8 276.4,621.9" fill="#ffe5eb"/><rect x="345.5" y="552.8" width="69.1" height="69.1" fill="#ffffff"/><rect x="345.5" y="552.8" width="34.55" height="34.55" fill="#6e87ec"/><polygon points="380.05,552.8 380.05,587.3499999999999 345.5,587.3499999999999" fill="#8499ef"/><rect x="380.05" y="552.8" width="34.55" height="34.55" fill="#dee3fb"/><polygon points="380.05,552.8 414.6,552.8 380.05,587.3499999999999" fill="#d2d9f9"/><rect x="345.5" y="587.35" width="34.55" height="34.55" fill="#eef1fd"/><polygon points="345.5,587.35 380.05,587.35 345.5,621.9" fill="#ff819f"/><rect x="380.05" y="587.35" width="34.55" height="34.55" fill="#3c5de6"/><polygon points="380.05,587.35 414.6,587.35 414.6,621.9" fill="#f3f5fd"/><rect x="414.59999999999997" y="552.8" width="69.1" height="69.1" fill="#ffffff"/><rect x="414.6" y="552.8" width="34.55" height="34.55" fill="#8c9ff0"/><polygon points="414.6,552.8 449.15000000000003,587.3499999999999 414.6,587.3499999999999" fill="#5975e9"/><rect x="449.15" y="552.8" width="34.55" height="34.55" fill="#aebbf4"/><polygon points="449.15,552.8 483.7,552.8 483.7,587.3499999999999" fill="#ff85a2"/><rect x="414.6" y="587.35" width="34.55" height="34.55" fill="#1d43e2"/><polygon points="414.6,587.35 449.15000000000003,587.35 414.6,621.9" fill="#4e6ce8"/><rect x="449.15" y="587.35" width="34.55" height="34.55" fill="#758ced"/><polygon points="449.15,587.35 483.7,587.35 449.15,621.9" fill="#e2e7fb"/><rect x="483.7" y="552.8" width="69.1" height="69.1" fill="#ffcad7"/><polygon points="552.8,552.8 552.8,621.9 483.7,621.9" fill="#6781eb"/><rect x="552.8" y="552.8" width="69.1" height="69.1" fill="#ffffff"/><rect x="552.8" y="552.8" width="34.55" height="34.55" fill="#2b4fe4"/><polygon points="552.8,552.8 587.3499999999999,587.3499999999999 552.8,587.3499999999999" fill="#ff6d90"/><rect x="587.35" y="552.8" width="34.55" height="34.55" fill="#768ded"/><polygon points="621.9,552.8 621.9,587.3499999999999 587.35,587.3499999999999" fill="#ff4874"/><rect x="552.8" y="587.35" width="34.55" height="34.55" fill="#3b5ce6"/><polygon points="552.8,587.35 587.3499999999999,587.35 552.8,621.9" fill="#8b9ef0"/><rect x="587.35" y="587.35" width="34.55" height="34.55" fill="#cad3f8"/><polygon points="587.35,587.35 621.9,621.9 587.35,621.9" fill="#a6b5f3"/><rect x="621.9" y="552.8" width="69.1" height="69.1" fill="#ffffff"/><rect x="621.9" y="552.8" width="34.55" height="34.55" fill="#2248e2"/><polygon points="621.9,552.8 656.4499999999999,552.8 621.9,587.3499999999999" fill="#e9edfc"/><rect x="656.45" y="552.8" width="34.55" height="34.55" fill="#ff577f"/><polygon points="691,552.8 691,587.3499999999999 656.45,587.3499999999999" fill="#778eed"/><rect x="621.9" y="587.35" width="34.55" height="34.55" fill="#ebeefc"/><polygon points="621.9,587.35 656.4499999999999,587.35 656.4499999999999,621.9" fill="#fff8f9"/><rect x="656.45" y="587.35" width="34.55" height="34.55" fill="#ff9db4"/><polygon points="691,587.35 691,621.9 656.45,621.9" fill="#ff6086"/><rect x="691" y="552.8" width="69.1" height="69.1" fill="#1d43e2"/><polygon points="691,552.8 760.1,621.9 691,621.9" fill="#ff7797"/><rect x="760.0999999999999" y="552.8" width="69.1" height="69.1" fill="#ffffff"/><rect x="760.1" y="552.8" width="34.55" height="34.55" fill="#ff507a"/><polygon points="760.1,552.8 794.65,552.8 760.1,587.3499999999999" fill="#ffb5c6"/><rect x="794.65" y="552.8" width="34.55" height="34.55" fill="#2046e2"/><polygon points="794.65,552.8 829.1999999999999,552.8 794.65,587.3499999999999" fill="#8b9ef0"/><rect x="760.1" y="587.35" width="34.55" height="34.55" fill="#ffeaef"/><polygon points="794.65,587.35 794.65,621.9 760.1,621.9" fill="#ffffff"/><rect x="794.65" y="587.35" width="34.55" height="34.55" fill="#9aabf2"/><polygon points="794.65,587.35 829.1999999999999,621.9 794.65,621.9" fill="#ff99b1"/><rect x="829.2" y="552.8" width="69.1" height="69.1" fill="#eaeefc"/><polygon points="829.2,552.8 898.3000000000001,552.8 829.2,621.9" fill="#92a4f1"/><rect x="898.3" y="552.8" width="69.1" height="69.1" fill="#c9d2f8"/><polygon points="898.3,552.8 967.4,552.8 967.4,621.9" fill="#ff5981"/><rect x="967.4" y="552.8" width="69.1" height="69.1" fill="#6d85ec"/><polygon points="967.4,552.8 1036.5,621.9 967.4,621.9" fill="#2146e2"/><rect x="1036.5" y="552.8" width="69.1" height="69.1" fill="#ff9db4"/><polygon points="1036.5,552.8 1105.6,552.8 1036.5,621.9" fill="#ff517a"/><rect x="0" y="621.9" width="69.1" height="69.1" fill="#8499ef"/><polygon points="0,621.9 69.1,691 0,691" fill="#ffe1e8"/><rect x="69.1" y="621.9" width="69.1" height="69.1" fill="#2b4fe3"/><polygon points="69.1,621.9 138.2,621.9 138.2,691" fill="#e5eafc"/><rect x="138.2" y="621.9" width="69.1" height="69.1" fill="#b8c4f6"/><polygon points="138.2,621.9 207.29999999999998,691 138.2,691" fill="#9aabf2"/><rect x="207.3" y="621.9" width="69.1" height="69.1" fill="#ff4b76"/><polygon points="207.3,621.9 276.4,691 207.3,691" fill="#ffc5d3"/><rect x="276.4" y="621.9" width="69.1" height="69.1" fill="#ffffff"/><rect x="276.4" y="621.9" width="34.55" height="34.55" fill="#ffb7c8"/><polygon points="310.95,621.9 310.95,656.4499999999999 276.4,656.4499999999999" fill="#1e44e2"/><rect x="310.95" y="621.9" width="34.55" height="34.55" fill="#ff6b8e"/><polygon points="310.95,621.9 345.5,621.9 345.5,656.4499999999999" fill="#b0bef5"/><rect x="276.4" y="656.45" width="34.55" height="34.55" fill="#fff4f6"/><polygon points="310.95,656.45 310.95,691 276.4,691" fill="#ced7f9"/><rect x="310.95" y="656.45" width="34.55" height="34.55" fill="#ff688c"/><polygon points="310.95,656.45 345.5,656.45 310.95,691" fill="#ffe1e8"/><rect x="345.5" y="621.9" width="69.1" height="69.1" fill="#ffffff"/><rect x="345.5" y="621.9" width="34.55" height="34.55" fill="#ff7193"/><polygon points="345.5,621.9 380.05,621.9 345.5,656.4499999999999" fill="#7c92ee"/><rect x="380.05" y="621.9" width="34.55" height="34.55" fill="#ffa4ba"/><polygon points="380.05,621.9 414.6,621.9 414.6,656.4499999999999" fill="#193fe1"/><rect x="345.5" y="656.45" width="34.55" height="34.55" fill="#ffa0b7"/><polygon points="380.05,656.45 380.05,691 345.5,691" fill="#ffbbcc"/><rect x="380.05" y="656.45" width="34.55" height="34.55" fill="#d6ddfa"/><polygon points="380.05,656.45 414.6,691 380.05,691" fill="#bcc8f6"/><rect x="414.59999999999997" y="621.9" width="69.1" height="69.1" fill="#ffffff"/><rect x="414.6" y="621.9" width="34.55" height="34.55" fill="#ffcfdb"/><polygon points="414.6,621.9 449.15000000000003,656.4499999999999 414.6,656.4499999999999" fill="#ff5b82"/><rect x="449.15" y="621.9" width="34.55" height="34.55" fill="#d9dffa"/><polygon points="449.15,621.9 483.7,656.4499999999999 449.15,656.4499999999999" fill="#ffd4de"/><rect x="414.6" y="656.45" width="34.55" height="34.55" fill="#ffaabe"/><polygon points="449.15000000000003,656.45 449.15000000000003,691 414.6,691" fill="#4161e6"/><rect x="449.15" y="656.45" width="34.55" height="34.55" fill="#ffc4d2"/><polygon points="449.15,656.45 483.7,656.45 449.15,691" fill="#ff7c9b"/><rect x="483.7" y="621.9" width="69.1" height="69.1" fill="#ff5a81"/><polygon points="483.7,621.9 552.8,691 483.7,691" fill="#ff7b9a"/><rect x="552.8" y="621.9" width="69.1" height="69.1" fill="#ffffff"/><rect x="552.8" y="621.9" width="34.55" height="34.55" fill="#ffa7bc"/><polygon points="587.3499999999999,621.9 587.3499999999999,656.4499999999999 552.8,656.4499999999999" fill="#ff8da8"/><rect x="587.35" y="621.9" width="34.55" height="34.55" fill="#516ee8"/><polygon points="587.35,621.9 621.9,621.9 621.9,656.4499999999999" fill="#ffbfce"/><rect x="552.8" y="656.45" width="34.55" height="34.55" fill="#c5cff7"/><polygon points="552.8,656.45 587.3499999999999,656.45 552.8,691" fill="#cfd7f9"/><rect x="587.35" y="656.45" width="34.55" height="34.55" fill="#c3cdf7"/><polygon points="621.9,656.45 621.9,691 587.35,691" fill="#ff6b8e"/><rect x="621.9" y="621.9" width="69.1" height="69.1" fill="#ffffff"/><rect x="621.9" y="621.9" width="34.55" height="34.55" fill="#ff4c77"/><polygon points="621.9,621.9 656.4499999999999,621.9 621.9,656.4499999999999" fill="#fafbfe"/><rect x="656.45" y="621.9" width="34.55" height="34.55" fill="#506ee8"/><polygon points="656.45,621.9 691,621.9 691,656.4499999999999" fill="#ff688c"/><rect x="621.9" y="656.45" width="34.55" height="34.55" fill="#ffd3de"/><polygon points="621.9,656.45 656.4499999999999,656.45 656.4499999999999,691" fill="#97a8f1"/><rect x="656.45" y="656.45" width="34.55" height="34.55" fill="#f4f6fe"/><polygon points="656.45,656.45 691,656.45 691,691" fill="#ff84a1"/><rect x="691" y="621.9" width="69.1" height="69.1" fill="#8fa2f0"/><polygon points="760.1,621.9 760.1,691 691,691" fill="#ffeff3"/><rect x="760.1" y="621.9" width="69.1" height="69.1" fill="#ff8fa9"/><polygon points="760.1,621.9 829.2,621.9 760.1,691" fill="#d4dcf9"/><rect x="829.2" y="621.9" width="69.1" height="69.1" fill="#4766e7"/><polygon points="829.2,621.9 898.3000000000001,621.9 898.3000000000001,691" fill="#8da1f0"/><rect x="898.3" y="621.9" width="69.1" height="69.1" fill="#ff88a4"/><polygon points="967.4,621.9 967.4,691 898.3,691" fill="#ff8ca7"/><rect x="967.3999999999999" y="621.9" width="69.1" height="69.1" fill="#ffffff"/><rect x="967.4" y="621.9" width="34.55" height="34.55" fill="#9eaff2"/><polygon points="967.4,621.9 1001.9499999999999,621.9 1001.9499999999999,656.4499999999999" fill="#bdc9f6"/><rect x="1001.95" y="621.9" width="34.55" height="34.55" fill="#1e44e2"/><polygon points="1036.5,621.9 1036.5,656.4499999999999 1001.95,656.4499999999999" fill="#3a5be5"/><rect x="967.4" y="656.45" width="34.55" height="34.55" fill="#6982ec"/><polygon points="967.4,656.45 1001.9499999999999,656.45 967.4,691" fill="#ffdce4"/><rect x="1001.95" y="656.45" width="34.55" height="34.55" fill="#ff7b9b"/><polygon points="1036.5,656.45 1036.5,691 1001.95,691" fill="#d1d9f9"/><rect x="1036.5" y="621.9" width="69.1" height="69.1" fill="#ffffff"/><rect x="1036.5" y="621.9" width="34.55" height="34.55" fill="#ff4b75"/><polygon points="1036.5,621.9 1071.05,656.4499999999999 1036.5,656.4499999999999" fill="#e2e7fb"/><rect x="1071.05" y="621.9" width="34.55" height="34.55" fill="#1d43e2"/><polygon points="1071.05,621.9 1105.6,656.4499999999999 1071.05,656.4499999999999" fill="#d8dffa"/><rect x="1036.5" y="656.45" width="34.55" height="34.55" fill="#ff9bb3"/><polygon points="1036.5,656.45 1071.05,691 1036.5,691" fill="#516fe8"/><rect x="1071.05" y="656.45" width="34.55" height="34.55" fill="#ffd8e1"/><polygon points="1071.05,656.45 1105.6,656.45 1105.6,691" fill="#e5e9fc"/></g></svg>